<svg id="manual" xmlns="http://www.w3.org/2000/svg" viewBox="0 0 200 200"><defs><style>.cls-1{fill:#2d5691;}.cls-2{fill:#d1c8bd;}.cls-3{fill:#e2d9cc;}.cls-4{fill:#ede6dd;}.cls-5{fill:#fff8e9;}.cls-6{fill:#e5f2f9;}.cls-7{fill:#bfb5ac;}.cls-8{fill:#e0dedc;}</style></defs><rect class="cls-1" x="50.06" y="25" width="120" height="160" rx="8"/><rect class="cls-2" x="48.06" y="23" width="120" height="160" rx="8"/><rect class="cls-3" x="46.06" y="21" width="120" height="160" rx="8"/><rect class="cls-4" x="44.06" y="19" width="120" height="160" rx="8"/><rect class="cls-5" x="42.06" y="17" width="120" height="160" rx="8"/><rect class="cls-1" x="40.06" y="15" width="120" height="160" rx="8"/><rect class="cls-6" x="55.06" y="33.37" width="90" height="35" rx="3"/><circle class="cls-7" cx="48.56" cy="29.97" r="3.19"/><path class="cls-8" d="M40.06,40.19a16.85,16.85,0,0,1-6.16-1.57c-3.45-1.72-4-4-4-5.22s.51-3.51,4-5.22a19.34,19.34,0,0,1,15.55,0,2,2,0,1,1-1.79,3.58,15.37,15.37,0,0,0-12,0c-1.2.6-1.74,1.25-1.74,1.64s.54,1,1.74,1.64A12.88,12.88,0,0,0,40,36.17Z"/><circle class="cls-7" cx="48.56" cy="48.58" r="3.19"/><path class="cls-8" d="M40.06,58.81a16.85,16.85,0,0,1-6.16-1.58c-3.45-1.71-4-4-4-5.22s.51-3.5,4-5.22a19.39,19.39,0,0,1,15.55,0,2,2,0,1,1-1.79,3.58,15.46,15.46,0,0,0-12,0c-1.2.6-1.74,1.26-1.74,1.64s.54,1,1.74,1.64A12.65,12.65,0,0,0,40,54.78Z"/><circle class="cls-7" cx="48.56" cy="67.2" r="3.19"/><path class="cls-8" d="M40.06,77.42a16.66,16.66,0,0,1-6.16-1.57c-3.45-1.71-4-4-4-5.22s.51-3.5,4-5.22a19.39,19.39,0,0,1,15.55,0A2,2,0,1,1,47.66,69a15.37,15.37,0,0,0-12,0c-1.2.6-1.74,1.26-1.74,1.64s.54,1,1.74,1.64A12.65,12.65,0,0,0,40,73.4Z"/><circle class="cls-7" cx="48.56" cy="85.82" r="3.19"/><path class="cls-8" d="M40.06,96a16.85,16.85,0,0,1-6.16-1.57c-3.45-1.72-4-4-4-5.22s.51-3.5,4-5.22a19.39,19.39,0,0,1,15.55,0,2,2,0,1,1-1.79,3.58,15.37,15.37,0,0,0-12,0c-1.2.6-1.74,1.26-1.74,1.64s.54,1,1.74,1.64A12.65,12.65,0,0,0,40,92Z"/><circle class="cls-7" cx="48.56" cy="104.44" r="3.19"/><path class="cls-8" d="M40.06,114.66a17.06,17.06,0,0,1-6.16-1.57c-3.45-1.72-4-4-4-5.22s.51-3.51,4-5.22a19.3,19.3,0,0,1,15.55,0,2,2,0,1,1-1.79,3.58,15.37,15.37,0,0,0-12,0c-1.2.6-1.74,1.25-1.74,1.64s.54,1,1.74,1.64A12.88,12.88,0,0,0,40,110.64Z"/><circle class="cls-7" cx="48.56" cy="123.05" r="3.19"/><path class="cls-8" d="M40.06,133.28a16.85,16.85,0,0,1-6.16-1.58c-3.45-1.71-4-4-4-5.22s.51-3.5,4-5.22a19.39,19.39,0,0,1,15.55,0,2,2,0,1,1-1.79,3.58,15.46,15.46,0,0,0-12,0c-1.2.6-1.74,1.26-1.74,1.64s.54,1,1.74,1.64A12.65,12.65,0,0,0,40,129.25Z"/><circle class="cls-7" cx="48.56" cy="141.67" r="3.19"/><path class="cls-8" d="M40.06,151.89a16.66,16.66,0,0,1-6.16-1.57c-3.45-1.72-4-4-4-5.22s.51-3.5,4-5.22a19.39,19.39,0,0,1,15.55,0,2,2,0,1,1-1.79,3.58,15.37,15.37,0,0,0-12,0c-1.2.6-1.74,1.26-1.74,1.64s.54,1,1.74,1.64A12.65,12.65,0,0,0,40,147.87Z"/><circle class="cls-7" cx="48.56" cy="160.29" r="3.19"/><path class="cls-8" d="M40.06,170.51a16.85,16.85,0,0,1-6.16-1.57c-3.45-1.72-4-4-4-5.22s.51-3.5,4-5.22a19.39,19.39,0,0,1,15.55,0,2,2,0,1,1-1.79,3.58,15.37,15.37,0,0,0-12,0c-1.2.6-1.74,1.26-1.74,1.64s.54,1,1.74,1.64A12.65,12.65,0,0,0,40,166.49Z"/></svg>