<svg id="board" xmlns="http://www.w3.org/2000/svg" viewBox="0 0 200 200"><defs><style>.cls-1{fill:#4b9ae2;}.cls-2{fill:#73b4f9;}.cls-3{fill:#e2d9cc;}.cls-4{fill:#ede6dd;}.cls-5{fill:#fff8e9;}.cls-6{fill:#cecece;}.cls-7,.cls-8{fill:none;stroke-miterlimit:10;stroke-width:3px;}.cls-7{stroke:#000;}.cls-8{stroke:#cecece;}.cls-9{fill:#f48282;}.cls-10{fill:#b0e082;}.cls-11{fill:#f9e27d;}.cls-12{fill:#f2b42a;}</style></defs><rect class="cls-1" x="41" y="21" width="120" height="160" rx="5"/><rect class="cls-2" x="40" y="20" width="120" height="160" rx="5"/><rect class="cls-3" x="52" y="34" width="100" height="140" rx="2"/><rect class="cls-4" x="51" y="33" width="100" height="140" rx="2"/><rect x="75" y="24" width="50" height="6" rx="0.5"/><rect class="cls-5" x="50" y="32" width="100" height="140" rx="2"/><path class="cls-6" d="M128,28V39H72V28h56m0-2H72a2,2,0,0,0-2,2V39a2,2,0,0,0,2,2h56a2,2,0,0,0,2-2V28a2,2,0,0,0-2-2Z"/><path class="cls-7" d="M130,33.52V39a2,2,0,0,1-2,2h-5.5"/><path class="cls-7" d="M70,33.52V39a2,2,0,0,0,2,2h5.5"/><line class="cls-8" x1="60" y1="55.38" x2="140" y2="55.38"/><line class="cls-8" x1="60" y1="72.14" x2="140" y2="72.14"/><line class="cls-8" x1="60" y1="88.89" x2="140" y2="88.89"/><line class="cls-8" x1="60" y1="105.65" x2="140" y2="105.65"/><line class="cls-8" x1="60" y1="122.4" x2="140" y2="122.4"/><line class="cls-8" x1="60" y1="139.16" x2="140" y2="139.16"/><line class="cls-8" x1="60" y1="155.91" x2="140" y2="155.91"/><rect class="cls-9" x="150" y="54.89" width="15" height="10"/><rect class="cls-10" x="152" y="101.81" width="15" height="10"/><rect class="cls-11" x="151" y="70.53" width="15" height="10"/><rect class="cls-12" x="151" y="86.17" width="15" height="10"/></svg>