<svg xmlns="http://www.w3.org/2000/svg" viewBox="0 0 150 150"><defs><style>.cls-1{fill:#fff;opacity:0.8;}</style></defs><g id="圖層_2" data-name="圖層 2"><path class="cls-1" d="M117.5,52.5h-85A7.5,7.5,0,0,1,25,45h0a7.5,7.5,0,0,1,7.5-7.5h85A7.5,7.5,0,0,1,125,45h0A7.5,7.5,0,0,1,117.5,52.5Z"/><path class="cls-1" d="M117.5,82.5h-85A7.5,7.5,0,0,1,25,75h0a7.5,7.5,0,0,1,7.5-7.5h85A7.5,7.5,0,0,1,125,75h0A7.5,7.5,0,0,1,117.5,82.5Z"/><path class="cls-1" d="M117.5,112.5h-85A7.5,7.5,0,0,1,25,105h0a7.5,7.5,0,0,1,7.5-7.5h85A7.5,7.5,0,0,1,125,105h0A7.5,7.5,0,0,1,117.5,112.5Z"/></g></svg>